<svg
  style="color: #9bca2f;"
  aria-hidden="true"
  focusable="false"
  role="img"
  xmlns="http://www.w3.org/2000/svg"
  viewBox="0 0 640 512"
>
  <path
    fill="currentColor"
    d="M 480 96 H 160 C 71.6 96 0 167.6 0 256 s 71.6 160 160 160 c 44.8 0 85.2 -18.4 114.2 -48 h 91.5 c 29 29.6 69.5 48 114.2 48 c 88.4 0 160 -71.6 160 -160 S 568.4 96 480 96 Z M 256 276 c 0 6.6 -5.4 12 -12 12 h -52 v 52 c 0 6.6 -5.4 12 -12 12 h -40 c -6.6 0 -12 -5.4 -12 -12 v -52 H 76 c -6.6 0 -12 -5.4 -12 -12 v -40 c 0 -6.6 5.4 -12 12 -12 h 52 v -52 c 0 -6.6 5.4 -12 12 -12 h 40 c 6.6 0 12 5.4 12 12 v 52 h 52 c 6.6 0 12 5.4 12 12 v 40 Z m 184 68 c -26.5 0 -48 -21.5 -48 -48 s 21.5 -48 48 -48 s 48 21.5 48 48 s -21.5 48 -48 48 Z m 80 -80 c -26.5 0 -48 -21.5 -48 -48 s 21.5 -48 48 -48 s 48 21.5 48 48 s -21.5 48 -48 48 Z">
  </path>
</svg>
