<svg
  style="color: #3498db;"
  aria-hidden="true"
  focusable="false"
  role="img"
  xmlns="http://www.w3.org/2000/svg"
  viewBox="0 0 512 512"
>
  <path
    fill="currentColor"
    d="M 488.6 250.2 L 392 214 V 105.5 c 0 -15 -9.3 -28.4 -23.4 -33.7 l -100 -37.5 c -8.1 -3.1 -17.1 -3.1 -25.3 0 l -100 37.5 c -14.1 5.3 -23.4 18.7 -23.4 33.7 V 214 l -96.6 36.2 C 9.3 255.5 0 268.9 0 283.9 V 394 c 0 13.6 7.7 26.1 19.9 32.2 l 100 50 c 10.1 5.1 22.1 5.1 32.2 0 l 103.9 -52 l 103.9 52 c 10.1 5.1 22.1 5.1 32.2 0 l 100 -50 c 12.2 -6.1 19.9 -18.6 19.9 -32.2 V 283.9 c 0 -15 -9.3 -28.4 -23.4 -33.7 Z M 358 214.8 l -85 31.9 v -68.2 l 85 -37 v 73.3 Z M 154 104.1 l 102 -38.2 l 102 38.2 v 0.6 l -102 41.4 l -102 -41.4 v -0.6 Z m 84 291.1 l -85 42.5 v -79.1 l 85 -38.8 v 75.4 Z m 0 -112 l -102 41.4 l -102 -41.4 v -0.6 l 102 -38.2 l 102 38.2 v 0.6 Z m 240 112 l -85 42.5 v -79.1 l 85 -38.8 v 75.4 Z m 0 -112 l -102 41.4 l -102 -41.4 v -0.6 l 102 -38.2 l 102 38.2 v 0.6 Z"
    >
  </path>
</svg>
