<svg
  aria-hidden="true"
  focusable="false"
  role="img"
  xmlns="http://www.w3.org/2000/svg"
  width="640"
  viewBox="0 0 640 512"
  style="color: #f5b82a"
>
  <path
    fill="currentColor"
    d="M 608 64 H 32 C 14.33 64 0 78.33 0 96 v 320 c 0 17.67 14.33 32 32 32 h 160.22 c 25.19 0 48.03 -14.77 58.36 -37.74 l 27.74 -61.64 C 286.21 331.08 302.35 320 320 320 s 33.79 11.08 41.68 28.62 l 27.74 61.64 C 399.75 433.23 422.6 448 447.78 448 H 608 c 17.67 0 32 -14.33 32 -32 V 96 c 0 -17.67 -14.33 -32 -32 -32 Z M 160 304 c -35.35 0 -64 -28.65 -64 -64 s 28.65 -64 64 -64 s 64 28.65 64 64 s -28.65 64 -64 64 Z m 320 0 c -35.35 0 -64 -28.65 -64 -64 s 28.65 -64 64 -64 s 64 28.65 64 64 s -28.65 64 -64 64 Z" 
  >
  </path>
</svg>
