<?xml version="1.0" encoding="UTF-8"?>
<svg xmlns="http://www.w3.org/2000/svg" xmlns:xlink="http://www.w3.org/1999/xlink" width="24pt" height="24pt" viewBox="0 0 24 24" version="1.1">
<g id="surface1">
<path style=" stroke:none;fill-rule:nonzero;fill:rgb(0%,0%,0%);fill-opacity:1;" d="M 11.753906 11.253906 C 11.90625 11.308594 12.082031 11.3125 12.246094 11.253906 L 21.140625 7.917969 L 21.140625 15.605469 C 21.367188 15.550781 21.601562 15.515625 21.84375 15.515625 C 22.089844 15.515625 22.320312 15.550781 22.546875 15.605469 L 22.546875 7.390625 L 23.546875 7.03125 C 24.152344 6.804688 24.152344 5.945312 23.546875 5.714844 L 12.246094 1.496094 C 12.085938 1.4375 11.910156 1.4375 11.753906 1.496094 L 0.453125 5.714844 C -0.152344 5.945312 -0.152344 6.804688 0.453125 7.03125 Z M 11.753906 11.253906 "/>
<path style=" stroke:none;fill-rule:nonzero;fill:rgb(0%,0%,0%);fill-opacity:1;" d="M 21.84375 16.921875 C 20.640625 16.921875 19.734375 18.433594 19.734375 20.4375 L 19.734375 21.84375 C 19.734375 22.234375 20.050781 22.546875 20.4375 22.546875 L 23.25 22.546875 C 23.640625 22.546875 23.953125 22.234375 23.953125 21.84375 L 23.953125 20.4375 C 23.953125 18.433594 23.046875 16.921875 21.84375 16.921875 Z M 21.84375 16.921875 "/>
<path style=" stroke:none;fill-rule:nonzero;fill:rgb(0%,0%,0%);fill-opacity:1;" d="M 19.273438 10.121094 L 12.742188 12.570312 C 12.25 12.75 11.734375 12.746094 11.265625 12.570312 L 4.726562 10.121094 C 4.140625 12.269531 4.289062 13.679688 4.265625 14.109375 C 4.265625 14.605469 4.769531 14.945312 5.226562 14.761719 C 5.246094 14.757812 6.890625 14.109375 8.484375 14.109375 C 9.96875 14.109375 11.546875 15.351562 11.5625 15.363281 C 11.8125 15.5625 12.179688 15.570312 12.4375 15.363281 C 12.875 15.011719 14.277344 14.109375 15.515625 14.109375 C 17.109375 14.109375 18.753906 14.757812 18.773438 14.761719 C 19.226562 14.945312 19.734375 14.609375 19.734375 14.109375 C 19.710938 13.695312 19.855469 12.257812 19.273438 10.121094 Z M 19.273438 10.121094 "/>
</g>
</svg>
